<svg width="54" height="54" viewBox="0 0 54 54" fill="none" xmlns="http://www.w3.org/2000/svg">
<rect width="54" height="54" rx="16" fill="#E2DFFF"/>
<path d="M37.1579 19.4068C36.5487 16.3326 34.2679 14.9868 31.0945 14.9868H18.6562C14.9162 14.9868 12.4229 16.8568 12.4229 21.2201V28.516C12.4229 31.661 13.712 33.5026 15.837 34.296C16.1487 34.4093 16.4887 34.5085 16.8429 34.5652C17.4095 34.6926 18.0187 34.7493 18.6562 34.7493H31.1087C34.8487 34.7493 37.342 32.8793 37.342 28.516V21.2201C37.342 20.5543 37.2853 19.9593 37.1579 19.4068ZM17.8345 27.0001C17.8345 27.581 17.3529 28.0626 16.772 28.0626C16.1912 28.0626 15.7095 27.581 15.7095 27.0001V22.7502C15.7095 22.1693 16.1912 21.6877 16.772 21.6877C17.3529 21.6877 17.8345 22.1693 17.8345 22.7502V27.0001ZM24.8754 28.6152C22.807 28.6152 21.1354 26.9435 21.1354 24.8752C21.1354 22.8068 22.807 21.1352 24.8754 21.1352C26.9437 21.1352 28.6154 22.8068 28.6154 24.8752C28.6154 26.9435 26.9437 28.6152 24.8754 28.6152ZM34.027 27.0001C34.027 27.581 33.5453 28.0626 32.9645 28.0626C32.3837 28.0626 31.902 27.581 31.902 27.0001V22.7502C31.902 22.1693 32.3837 21.6877 32.9645 21.6877C33.5453 21.6877 34.027 22.1693 34.027 22.7502V27.0001Z" fill="#513DFF"/>
<path d="M41.5918 25.4701V32.7659C41.5918 37.1292 39.0985 39.0134 35.3443 39.0134H22.906C21.8435 39.0134 20.8943 38.8576 20.0727 38.5459C19.4068 38.3051 18.826 37.9509 18.3585 37.4976C18.1035 37.2567 18.3018 36.8742 18.656 36.8742H31.0943C36.336 36.8742 39.4527 33.7576 39.4527 28.5301V21.2201C39.4527 20.8801 39.8352 20.6676 40.076 20.9226C41.0393 21.9426 41.5918 23.4301 41.5918 25.4701Z" fill="#513DFF"/>
</svg>
