<svg width="56" height="56" viewBox="0 0 56 56" fill="none" xmlns="http://www.w3.org/2000/svg">
<path d="M39.6431 22.6567H16.3564C15.3998 22.6567 14.6064 21.8634 14.6064 20.9067C14.6064 19.9501 15.3998 19.1567 16.3564 19.1567H39.6431C40.5997 19.1567 41.3931 19.9501 41.3931 20.9067C41.3931 21.8634 40.5997 22.6567 39.6431 22.6567Z" fill="#292D32"/>
<path d="M28 22.6568C27.0433 22.6568 26.25 21.8635 26.25 20.9068V16.9868C26.25 16.0301 27.0433 15.2368 28 15.2368C28.9567 15.2368 29.75 16.0301 29.75 16.9868V20.9068C29.75 21.8635 28.9567 22.6568 28 22.6568Z" fill="#292D32"/>
<path d="M16.333 40.7631C15.3763 40.7631 14.583 39.9698 14.583 39.0131C14.583 38.0565 15.3763 37.2631 16.333 37.2631C25.013 37.2631 32.083 29.9132 32.083 20.8599C32.083 19.9032 32.8763 19.1099 33.833 19.1099C34.7897 19.1099 35.583 19.9032 35.583 20.8599C35.583 31.8499 26.9497 40.7631 16.333 40.7631Z" fill="#292D32"/>
<path d="M39.6672 40.7634C35.0706 40.7634 30.8005 38.4768 27.6739 34.3002C27.0905 33.5302 27.2539 32.4335 28.0239 31.8502C28.7939 31.2668 29.8906 31.4301 30.4739 32.2001C32.9472 35.4668 36.2139 37.2634 39.6906 37.2634C40.6473 37.2634 41.4406 38.0567 41.4406 39.0134C41.4406 39.9701 40.6239 40.7634 39.6672 40.7634Z" fill="#292D32"/>
<path d="M35.0003 53.0832H21.0003C8.33033 53.0832 2.91699 47.6698 2.91699 34.9998V20.9998C2.91699 8.32984 8.33033 2.9165 21.0003 2.9165H35.0003C47.6703 2.9165 53.0837 8.32984 53.0837 20.9998V34.9998C53.0837 47.6698 47.6703 53.0832 35.0003 53.0832ZM21.0003 6.4165C10.2437 6.4165 6.41699 10.2432 6.41699 20.9998V34.9998C6.41699 45.7565 10.2437 49.5832 21.0003 49.5832H35.0003C45.757 49.5832 49.5837 45.7565 49.5837 34.9998V20.9998C49.5837 10.2432 45.757 6.4165 35.0003 6.4165H21.0003Z" fill="#292D32"/>
</svg>
