<svg width="26" height="26" viewBox="0 0 26 26" fill="none" xmlns="http://www.w3.org/2000/svg">
<path d="M12.9992 0.200195C5.93042 0.200195 0.199219 5.9314 0.199219 13.0002C0.199219 20.069 5.93042 25.8002 12.9992 25.8002C20.068 25.8002 25.7992 20.069 25.7992 13.0002C25.7992 5.9314 20.068 0.200195 12.9992 0.200195ZM8.19495 5.9634C9.09309 5.9634 9.69149 6.5618 9.69149 7.35966C9.69149 8.15753 9.09309 8.75593 8.09575 8.75593C7.19762 8.757 6.59922 8.15753 6.59922 7.35966C6.59922 6.5618 7.19762 5.9634 8.19495 5.9634ZM9.79922 18.3335H6.59922V9.8002H9.79922V18.3335ZM20.4659 18.3335H17.4536V13.6701C17.4536 12.3805 16.6504 12.0829 16.3496 12.0829C16.0488 12.0829 15.044 12.2813 15.044 13.6701C15.044 13.8685 15.044 18.3335 15.044 18.3335H11.9326V9.8002H15.0451V10.9906C15.4462 10.2962 16.2494 9.8002 17.7555 9.8002C19.2616 9.8002 20.4659 10.9906 20.4659 13.6701V18.3335Z" fill="#F8F7F9"/>
</svg>
