<svg width="48" height="48" viewBox="0 0 48 48" fill="none" xmlns="http://www.w3.org/2000/svg">
<rect width="48" height="48" rx="16" fill="#E2DFFF"/>
<path d="M25 29.2263H25.8667C26.7333 29.2263 27.4533 28.4529 27.4533 27.5196C27.4533 26.3596 27.04 26.1329 26.36 25.8929L25.0133 25.4263V29.2263H25Z" fill="#513DFF"/>
<path d="M23.9604 10.5332C16.6004 10.5599 10.6404 16.5466 10.6671 23.9066C10.6937 31.2666 16.6804 37.2266 24.0404 37.1999C31.4004 37.1732 37.3604 31.1866 37.3337 23.8266C37.3071 16.4666 31.3204 10.5199 23.9604 10.5332ZM27.0137 23.9999C28.0537 24.3599 29.4537 25.1332 29.4537 27.5199C29.4537 29.5732 27.8404 31.2266 25.8671 31.2266H25.0004V31.9999C25.0004 32.5466 24.5471 32.9999 24.0004 32.9999C23.4537 32.9999 23.0004 32.5466 23.0004 31.9999V31.2266H22.5204C20.3337 31.2266 18.5604 29.3866 18.5604 27.1199C18.5604 26.5732 19.0137 26.1199 19.5604 26.1199C20.1071 26.1199 20.5604 26.5732 20.5604 27.1199C20.5604 28.2799 21.4404 29.2266 22.5204 29.2266H23.0004V24.7199L20.9871 23.9999C19.9471 23.6399 18.5471 22.8666 18.5471 20.4799C18.5471 18.4266 20.1604 16.7732 22.1337 16.7732H23.0004V15.9999C23.0004 15.4532 23.4537 14.9999 24.0004 14.9999C24.5471 14.9999 25.0004 15.4532 25.0004 15.9999V16.7732H25.4804C27.6671 16.7732 29.4404 18.6132 29.4404 20.8799C29.4404 21.4266 28.9871 21.8799 28.4404 21.8799C27.8937 21.8799 27.4404 21.4266 27.4404 20.8799C27.4404 19.7199 26.5604 18.7732 25.4804 18.7732H25.0004V23.2799L27.0137 23.9999Z" fill="#513DFF"/>
<path d="M20.5596 20.4934C20.5596 21.6534 20.9729 21.8801 21.6529 22.1201L22.9996 22.5868V18.7734H22.1329C21.2662 18.7734 20.5596 19.5468 20.5596 20.4934Z" fill="#513DFF"/>
</svg>
