<svg width="54" height="54" viewBox="0 0 54 54" fill="none" xmlns="http://www.w3.org/2000/svg">
<rect width="54" height="54" rx="16" fill="#E2DFFF"/>
<path d="M38.4747 23.0619C35.9105 23.0619 34.8622 21.2485 36.1372 19.0244C36.8738 17.7352 36.4347 16.0919 35.1455 15.3552L32.6947 13.9527C31.5755 13.2869 30.1305 13.6835 29.4647 14.8027L29.3088 15.0719C28.0338 17.296 25.9372 17.296 24.648 15.0719L24.4922 14.8027C23.8547 13.6835 22.4097 13.2869 21.2905 13.9527L18.8397 15.3552C17.5505 16.0919 17.1113 17.7494 17.848 19.0385C19.1372 21.2485 18.0888 23.0619 15.5247 23.0619C14.0513 23.0619 12.833 24.266 12.833 25.7535V28.2469C12.833 29.7202 14.0372 30.9385 15.5247 30.9385C18.0888 30.9385 19.1372 32.7519 17.848 34.976C17.1113 36.2652 17.5505 37.9085 18.8397 38.6452L21.2905 40.0477C22.4097 40.7135 23.8547 40.3169 24.5205 39.1977L24.6763 38.9285C25.9513 36.7044 28.048 36.7044 29.3372 38.9285L29.493 39.1977C30.1588 40.3169 31.6038 40.7135 32.723 40.0477L35.1738 38.6452C36.463 37.9085 36.9022 36.251 36.1655 34.976C34.8763 32.7519 35.9247 30.9385 38.4888 30.9385C39.9622 30.9385 41.1805 29.7344 41.1805 28.2469V25.7535C41.1663 24.2802 39.9622 23.0619 38.4747 23.0619ZM26.9997 31.6044C24.4638 31.6044 22.3955 29.536 22.3955 27.0002C22.3955 24.4644 24.4638 22.396 26.9997 22.396C29.5355 22.396 31.6038 24.4644 31.6038 27.0002C31.6038 29.536 29.5355 31.6044 26.9997 31.6044Z" fill="#513DFF"/>
</svg>
