<svg width="48" height="48" viewBox="0 0 48 48" fill="none" xmlns="http://www.w3.org/2000/svg">
<rect width="48" height="48" rx="16" fill="#E2DFFF"/>
<path d="M17.6662 23.9998C17.6662 23.4532 18.1195 22.9998 18.6662 22.9998H22.6662V17.9998C22.6662 17.2665 22.0662 16.6665 21.3329 16.6665H18.3595C14.1595 16.6665 10.5062 20.1065 10.6662 24.2932C10.7462 26.1998 11.5462 27.9198 12.8129 29.1865C14.1462 30.5065 15.9729 31.3332 17.9995 31.3332H21.3329C22.0662 31.3332 22.6662 30.7332 22.6662 29.9998V24.9998H18.6662C18.1195 24.9998 17.6662 24.5465 17.6662 23.9998Z" fill="#513DFF"/>
<path d="M35.1863 18.8132C33.853 17.4932 32.0263 16.6665 29.9997 16.6665H26.6663C25.933 16.6665 25.333 17.2665 25.333 17.9998V22.9998H29.333C29.8797 22.9998 30.333 23.4532 30.333 23.9998C30.333 24.5465 29.8797 24.9998 29.333 24.9998H25.333V29.9998C25.333 30.7332 25.933 31.3332 26.6663 31.3332H29.6397C33.8397 31.3332 37.493 27.8932 37.3197 23.7065C37.253 21.7998 36.4397 20.0798 35.1863 18.8132Z" fill="#513DFF"/>
<path d="M25.3337 23H22.667V25H25.3337V23Z" fill="#513DFF"/>
</svg>
