<svg width="48" height="48" viewBox="0 0 48 48" fill="none" xmlns="http://www.w3.org/2000/svg">
<rect width="48" height="48" rx="16" fill="#E2DFFF"/>
<path d="M23.3307 36.0013C30.3263 36.0013 35.9974 30.3302 35.9974 23.3346C35.9974 16.339 30.3263 10.668 23.3307 10.668C16.3351 10.668 10.6641 16.339 10.6641 23.3346C10.6641 30.3302 16.3351 36.0013 23.3307 36.0013Z" fill="#513DFF"/>
<path d="M36.4004 37.3342C36.1604 37.3342 35.9204 37.2409 35.7471 37.0676L33.2671 34.5876C32.9071 34.2276 32.9071 33.6409 33.2671 33.2676C33.6271 32.9076 34.2137 32.9076 34.5871 33.2676L37.0671 35.7476C37.4271 36.1076 37.4271 36.6942 37.0671 37.0676C36.8804 37.2409 36.6404 37.3342 36.4004 37.3342Z" fill="#513DFF"/>
</svg>
