<svg width="83" height="112" viewBox="0 0 83 112" fill="none" xmlns="http://www.w3.org/2000/svg">
<path d="M41.2081 112C33.2882 112 26.2346 110.634 20.0472 107.901C13.8951 105.133 9.0336 101.336 5.46259 96.5095C1.92693 91.6477 0.10607 86.0406 0 79.6882H23.1232C23.2646 82.3498 24.1308 84.692 25.7219 86.7148C27.3483 88.7022 29.505 90.2459 32.1921 91.346C34.8792 92.4461 37.9022 92.9962 41.2611 92.9962C44.7614 92.9962 47.8551 92.3752 50.5422 91.1331C53.2293 89.891 55.333 88.1698 56.8533 85.9696C58.3737 83.7693 59.1338 81.2319 59.1338 78.3574C59.1338 75.4474 58.3206 72.8745 56.6942 70.6388C55.1032 68.3676 52.805 66.5932 49.7997 65.3156C46.8297 64.038 43.2941 63.3992 39.1927 63.3992H29.0631V46.4715H39.1927C42.6577 46.4715 45.716 45.8682 48.3678 44.6616C51.0549 43.455 53.1409 41.7871 54.6259 39.6578C56.1108 37.493 56.8533 34.9734 56.8533 32.0989C56.8533 29.3663 56.1992 26.9709 54.891 24.9125C53.6182 22.8188 51.815 21.1863 49.4815 20.0152C47.1833 18.8441 44.4962 18.2586 41.4202 18.2586C38.3088 18.2586 35.4626 18.8264 32.8816 19.962C30.3006 21.0621 28.2322 22.6413 26.6765 24.6996C25.1208 26.7579 24.2899 29.1711 24.1839 31.9392H2.17443C2.2805 25.6578 4.066 20.1217 7.53094 15.3308C10.9959 10.5399 15.6629 6.79594 21.5321 4.09886C27.4367 1.36629 34.1014 0 41.5263 0C49.0218 0 55.5805 1.36629 61.2022 4.09886C66.8239 6.83143 71.1904 10.5222 74.3018 15.1711C77.4485 19.7845 79.0042 24.9658 78.9688 30.7148C79.0042 36.8188 77.1126 41.9113 73.2941 45.9924C69.511 50.0735 64.5787 52.6641 58.4974 53.7643V54.616C66.488 55.6451 72.5693 58.4309 76.7414 62.9734C80.9488 67.4804 83.0349 73.1229 82.9995 79.9011C83.0349 86.1115 81.2493 91.6299 77.643 96.4563C74.072 101.283 69.1397 105.08 62.8463 107.848C56.5528 110.616 49.3401 112 41.2081 112Z" fill="url(#paint0_linear_127_646)" fill-opacity="0.15"/>
<defs>
<linearGradient id="paint0_linear_127_646" x1="41.5" y1="30.5" x2="41.5" y2="112" gradientUnits="userSpaceOnUse">
<stop stop-color="#222222"/>
<stop offset="1" stop-color="#C1C1C1"/>
</linearGradient>
</defs>
</svg>
