<svg width="119" height="166" viewBox="0 0 119 166" fill="none" xmlns="http://www.w3.org/2000/svg">
<path d="M1.60811 166V141.052L60.2236 87.078C65.2088 82.2803 69.3899 77.9624 72.7669 74.1243C76.1975 70.2861 78.7973 66.5279 80.5662 62.8497C82.3351 59.1182 83.2196 55.0935 83.2196 50.7755C83.2196 45.9778 82.1207 41.8465 79.923 38.3815C77.7252 34.8632 74.7234 32.1712 70.9176 30.3054C67.1117 28.3863 62.7966 27.4268 57.9723 27.4268C52.9336 27.4268 48.5381 28.4396 44.7858 30.4653C41.0336 32.491 38.139 35.3963 36.102 39.1811C34.0651 42.966 33.0466 47.4705 33.0466 52.6946H0C0 41.9798 2.43896 32.6776 7.31689 24.7881C12.1948 16.8985 19.0293 10.7948 27.8203 6.47687C36.6113 2.15896 46.7423 0 58.2135 0C70.0063 0 80.2714 2.079 89.0088 6.237C97.7998 10.3417 104.634 16.0456 109.512 23.3487C114.39 30.6519 116.829 39.0212 116.829 48.4566C116.829 54.6403 115.596 60.7441 113.13 66.7678C110.718 72.7916 106.403 79.4817 100.185 86.8382C93.9671 94.1413 85.2029 102.91 73.8926 113.145L49.8513 136.574V137.694H119V166H1.60811Z" fill="url(#paint0_linear_127_626)" fill-opacity="0.15"/>
<defs>
<linearGradient id="paint0_linear_127_626" x1="59.5" y1="30.5226" x2="59.5" y2="132.8" gradientUnits="userSpaceOnUse">
<stop stop-color="#222222"/>
<stop offset="1" stop-color="#C1C1C1"/>
</linearGradient>
</defs>
</svg>
