<svg width="54" height="54" viewBox="0 0 54 54" fill="none" xmlns="http://www.w3.org/2000/svg">
<rect width="54" height="54" rx="16" fill="#E2DFFF"/>
<path d="M35.5 12.8335H18.5C16.1483 12.8335 14.25 14.7177 14.25 17.041V32.4968C14.25 34.8202 16.1483 36.7043 18.5 36.7043H19.5767C20.71 36.7043 21.7867 37.1435 22.58 37.9368L25.0025 40.331C26.1075 41.4218 27.9067 41.4218 29.0117 40.331L31.4342 37.9368C32.2275 37.1435 33.3183 36.7043 34.4375 36.7043H35.5C37.8517 36.7043 39.75 34.8202 39.75 32.4968V17.041C39.75 14.7177 37.8517 12.8335 35.5 12.8335ZM33.63 24.8752L31.9725 29.9185C31.76 30.7543 30.8675 31.4343 29.9608 31.4343H27.34C26.8867 31.4343 26.2492 31.2785 25.9658 30.9952L23.8833 29.366C23.8408 30.2727 23.43 30.6552 22.4242 30.6552H21.7442C20.6958 30.6552 20.2708 30.2443 20.2708 29.2527V22.4952C20.2708 21.5035 20.6958 21.0927 21.7442 21.0927H22.4383C23.4867 21.0927 23.9117 21.5035 23.9117 22.4952V23.0052L26.66 18.9252C26.9433 18.486 27.6658 18.1743 28.275 18.4152C28.9408 18.6418 29.3658 19.3785 29.2242 20.0302L28.8842 22.2402C28.8417 22.4243 28.8842 22.6227 29.0117 22.7502C29.125 22.8777 29.295 22.9627 29.4792 22.9627H32.2417C32.78 22.9627 33.2333 23.1752 33.5025 23.5577C33.7575 23.926 33.8 24.3935 33.63 24.8752Z" fill="#513DFF"/>
</svg>
